<?xml version="1.0" encoding="utf-8"?>
<!-- Generator: Adobe Illustrator 23.0.3, SVG Export Plug-In . SVG Version: 6.00 Build 0)  -->
<svg version="1.1" id="Layer_1" xmlns="http://www.w3.org/2000/svg" xmlns:xlink="http://www.w3.org/1999/xlink" x="0px" y="0px"
	 viewBox="0 0 841.89 595.28" style="enable-background:new 0 0 841.89 595.28;" xml:space="preserve">
<style type="text/css">
	.st0{fill:#FFFFFF;}
</style>
<g>
	<g>
		<path d="M-774.79,395.04c-5.14,0-9.24-1.13-12.29-3.38c-3.06-2.25-4.73-5.38-5.01-9.39h8.23c0.28,2.08,1.22,3.65,2.81,4.7
			c1.59,1.06,3.79,1.58,6.6,1.58c2.49,0,4.37-0.4,5.63-1.21c1.26-0.8,1.89-1.99,1.89-3.57c0-1.23-0.4-2.21-1.21-2.93
			c-0.8-0.72-2.1-1.28-3.9-1.66l-7.9-1.61c-3.56-0.76-6.23-2.01-7.99-3.76c-1.77-1.75-2.65-4.03-2.65-6.83
			c0-3.56,1.35-6.35,4.04-8.37c2.7-2.02,6.36-3.03,10.99-3.03c4.7,0,8.48,1.06,11.35,3.17c2.87,2.11,4.48,5.06,4.82,8.84h-8.23
			c-0.91-3.85-3.7-5.77-8.37-5.77c-2.11,0-3.77,0.38-4.97,1.13c-1.2,0.76-1.8,1.84-1.8,3.26c0,2.18,1.56,3.58,4.68,4.21l8.23,1.7
			c3.72,0.76,6.44,2.03,8.16,3.81c1.72,1.78,2.58,4.18,2.58,7.21c0,3.75-1.36,6.67-4.09,8.75
			C-765.91,394-769.78,395.04-774.79,395.04z"/>
		<path d="M-743.25,395.04c-3.09,0-5.78-0.61-8.06-1.82c-2.29-1.21-4.06-2.92-5.32-5.13c-1.26-2.21-1.89-4.82-1.89-7.85
			c0-2.99,0.62-5.6,1.87-7.8c1.25-2.21,3.02-3.91,5.32-5.11c2.3-1.2,5.01-1.8,8.13-1.8c3.09,0,5.77,0.6,8.04,1.8
			c2.27,1.2,4.02,2.9,5.25,5.11c1.23,2.21,1.84,4.82,1.84,7.85c0,3-0.61,5.6-1.84,7.83c-1.23,2.22-2.99,3.93-5.27,5.13
			C-737.48,394.44-740.17,395.04-743.25,395.04z M-743.25,388.23c2.36,0,4.18-0.72,5.44-2.15c1.26-1.43,1.89-3.38,1.89-5.84
			c0-2.46-0.63-4.39-1.89-5.79c-1.26-1.4-3.07-2.1-5.44-2.1c-2.4,0-4.23,0.7-5.51,2.1c-1.28,1.4-1.92,3.33-1.92,5.79
			c0,2.46,0.64,4.41,1.92,5.84C-747.49,387.51-745.65,388.23-743.25,388.23z"/>
		<path d="M-712.95,395.04c-2.96,0-5.56-0.61-7.78-1.82c-2.22-1.21-3.96-2.92-5.2-5.13c-1.25-2.21-1.87-4.81-1.87-7.8
			c0-2.99,0.61-5.6,1.84-7.8c1.23-2.21,2.96-3.92,5.2-5.13c2.24-1.21,4.84-1.82,7.8-1.82c3.75,0,6.84,0.95,9.27,2.84
			c2.43,1.89,3.96,4.49,4.59,7.8h-7.9c-0.41-1.23-1.12-2.18-2.13-2.84c-1.01-0.66-2.29-0.99-3.83-0.99c-2.11,0-3.81,0.69-5.08,2.08
			c-1.28,1.39-1.92,3.34-1.92,5.86c0,2.52,0.65,4.48,1.94,5.86c1.29,1.39,2.98,2.08,5.06,2.08c3.34,0,5.37-1.42,6.1-4.26h7.9
			c-0.57,3.47-2.07,6.18-4.49,8.13C-705.87,394.06-709.04,395.04-712.95,395.04z"/>
		<path d="M-694.27,363.31c-1.2,0-2.22-0.42-3.05-1.25c-0.84-0.83-1.25-1.85-1.25-3.05c0-1.2,0.42-2.21,1.25-3.05
			c0.83-0.83,1.85-1.25,3.05-1.25c1.2,0,2.21,0.42,3.05,1.25c0.83,0.84,1.25,1.85,1.25,3.05c0,1.2-0.42,2.21-1.25,3.05
			C-692.05,362.89-693.07,363.31-694.27,363.31z M-698.19,394.47V366.1h7.85v28.37H-698.19z"/>
		<path d="M-673.27,395.04c-3.06,0-5.72-0.61-7.99-1.82c-2.27-1.21-4.02-2.93-5.25-5.15c-1.23-2.22-1.84-4.85-1.84-7.87
			s0.6-5.63,1.8-7.83c1.2-2.19,2.91-3.88,5.13-5.06c2.22-1.18,4.85-1.77,7.87-1.77c2.96,0,5.51,0.57,7.64,1.7
			c2.13,1.14,3.76,2.76,4.89,4.87c1.13,2.11,1.7,4.63,1.7,7.57v2.65h-21.52c0.31,2.11,1.12,3.72,2.41,4.82
			c1.29,1.1,2.99,1.66,5.11,1.66c1.67,0,2.99-0.28,3.97-0.85c0.98-0.57,1.67-1.43,2.08-2.6h7.85c-0.63,3.03-2.16,5.4-4.59,7.12
			C-666.43,394.18-669.52,395.04-673.27,395.04z M-680.65,377.12h13.81c-0.25-1.8-0.95-3.14-2.08-4.04
			c-1.13-0.9-2.66-1.35-4.59-1.35c-1.92,0-3.49,0.46-4.71,1.37C-679.43,374.01-680.24,375.35-680.65,377.12z"/>
		<path d="M-648.5,394.47c-2.02,0-3.59-0.51-4.7-1.54c-1.12-1.02-1.68-2.59-1.68-4.7v-15.98h-4.87v-6.15h4.96v-8.51h7.66v8.51h6.57
			v6.15h-6.48v16.08h7.14v6.15H-648.5z"/>
		<path d="M-638.47,405.82v-6.29h6.24l2.22-5.3l-12.25-28.14h8.32l7.94,19.1h0.19l7.75-19.1h8.04l-12.15,28.37l-2.32,5.49
			c-0.79,1.86-1.7,3.3-2.74,4.33c-1.04,1.02-2.63,1.54-4.78,1.54H-638.47z"/>
		<path d="M-585.13,395.04c-3.09,0-5.78-0.61-8.06-1.82c-2.29-1.21-4.06-2.92-5.32-5.13c-1.26-2.21-1.89-4.82-1.89-7.85
			c0-2.99,0.62-5.6,1.87-7.8c1.25-2.21,3.02-3.91,5.32-5.11c2.3-1.2,5.01-1.8,8.13-1.8c3.09,0,5.77,0.6,8.04,1.8
			c2.27,1.2,4.02,2.9,5.25,5.11c1.23,2.21,1.84,4.82,1.84,7.85c0,3-0.61,5.6-1.84,7.83c-1.23,2.22-2.99,3.93-5.27,5.13
			C-579.36,394.44-582.05,395.04-585.13,395.04z M-585.13,388.23c2.36,0,4.18-0.72,5.44-2.15c1.26-1.43,1.89-3.38,1.89-5.84
			c0-2.46-0.63-4.39-1.89-5.79c-1.26-1.4-3.07-2.1-5.44-2.1c-2.4,0-4.23,0.7-5.51,2.1c-1.28,1.4-1.92,3.33-1.92,5.79
			c0,2.46,0.64,4.41,1.92,5.84C-589.37,387.51-587.53,388.23-585.13,388.23z"/>
		<path d="M-565.32,394.47v-22.22h-5.06v-6.15h5.15v-5.06c0-2.14,0.57-3.73,1.7-4.75c1.13-1.02,2.73-1.54,4.78-1.54h8.13v6.15h-6.95
			v5.2h6.38v6.15h-6.29v22.22H-565.32z"/>
		<path d="M-774.79,442.41c-5.14,0-9.24-1.13-12.29-3.38c-3.06-2.25-4.73-5.38-5.01-9.39h8.23c0.28,2.08,1.22,3.65,2.81,4.7
			c1.59,1.06,3.79,1.58,6.6,1.58c2.49,0,4.37-0.4,5.63-1.21c1.26-0.8,1.89-1.99,1.89-3.57c0-1.23-0.4-2.21-1.21-2.93
			c-0.8-0.72-2.1-1.28-3.9-1.66l-7.9-1.61c-3.56-0.76-6.23-2.01-7.99-3.76c-1.77-1.75-2.65-4.03-2.65-6.83
			c0-3.56,1.35-6.35,4.04-8.37c2.7-2.02,6.36-3.03,10.99-3.03c4.7,0,8.48,1.06,11.35,3.17c2.87,2.11,4.48,5.06,4.82,8.84h-8.23
			c-0.91-3.85-3.7-5.77-8.37-5.77c-2.11,0-3.77,0.38-4.97,1.13c-1.2,0.76-1.8,1.84-1.8,3.26c0,2.18,1.56,3.58,4.68,4.21l8.23,1.7
			c3.72,0.76,6.44,2.03,8.16,3.81c1.72,1.78,2.58,4.18,2.58,7.21c0,3.75-1.36,6.67-4.09,8.75
			C-765.91,441.37-769.78,442.41-774.79,442.41z"/>
		<path d="M-743.25,442.41c-3.09,0-5.78-0.61-8.06-1.82c-2.29-1.21-4.06-2.92-5.32-5.13c-1.26-2.21-1.89-4.82-1.89-7.85
			c0-2.99,0.62-5.6,1.87-7.8c1.25-2.21,3.02-3.91,5.32-5.11c2.3-1.2,5.01-1.8,8.13-1.8c3.09,0,5.77,0.6,8.04,1.8
			c2.27,1.2,4.02,2.9,5.25,5.11c1.23,2.21,1.84,4.82,1.84,7.85c0,3-0.61,5.6-1.84,7.83c-1.23,2.22-2.99,3.93-5.27,5.13
			C-737.48,441.81-740.17,442.41-743.25,442.41z M-743.25,435.6c2.36,0,4.18-0.72,5.44-2.15c1.26-1.43,1.89-3.38,1.89-5.84
			c0-2.46-0.63-4.39-1.89-5.79c-1.26-1.4-3.07-2.1-5.44-2.1c-2.4,0-4.23,0.7-5.51,2.1c-1.28,1.4-1.92,3.33-1.92,5.79
			c0,2.46,0.64,4.41,1.92,5.84C-747.49,434.88-745.65,435.6-743.25,435.6z"/>
		<path d="M-712.95,442.41c-2.96,0-5.56-0.61-7.78-1.82c-2.22-1.21-3.96-2.92-5.2-5.13c-1.25-2.21-1.87-4.81-1.87-7.8
			c0-2.99,0.61-5.6,1.84-7.8c1.23-2.21,2.96-3.92,5.2-5.13c2.24-1.21,4.84-1.82,7.8-1.82c3.75,0,6.84,0.95,9.27,2.84
			c2.43,1.89,3.96,4.49,4.59,7.8h-7.9c-0.41-1.23-1.12-2.18-2.13-2.84c-1.01-0.66-2.29-0.99-3.83-0.99c-2.11,0-3.81,0.69-5.08,2.08
			c-1.28,1.39-1.92,3.34-1.92,5.86c0,2.52,0.65,4.48,1.94,5.86c1.29,1.39,2.98,2.08,5.06,2.08c3.34,0,5.37-1.42,6.1-4.26h7.9
			c-0.57,3.47-2.07,6.18-4.49,8.13C-705.87,441.43-709.04,442.41-712.95,442.41z"/>
		<path d="M-694.27,410.68c-1.2,0-2.22-0.42-3.05-1.25c-0.84-0.83-1.25-1.85-1.25-3.05c0-1.2,0.42-2.21,1.25-3.05
			c0.83-0.83,1.85-1.25,3.05-1.25c1.2,0,2.21,0.42,3.05,1.25c0.83,0.84,1.25,1.85,1.25,3.05c0,1.2-0.42,2.21-1.25,3.05
			C-692.05,410.26-693.07,410.68-694.27,410.68z M-698.19,441.84v-28.37h7.85v28.37H-698.19z"/>
		<path d="M-673.27,442.41c-3.06,0-5.72-0.61-7.99-1.82c-2.27-1.21-4.02-2.93-5.25-5.15c-1.23-2.22-1.84-4.85-1.84-7.87
			s0.6-5.63,1.8-7.83c1.2-2.19,2.91-3.88,5.13-5.06c2.22-1.18,4.85-1.77,7.87-1.77c2.96,0,5.51,0.57,7.64,1.7
			c2.13,1.14,3.76,2.76,4.89,4.87c1.13,2.11,1.7,4.63,1.7,7.57v2.65h-21.52c0.31,2.11,1.12,3.72,2.41,4.82
			c1.29,1.1,2.99,1.66,5.11,1.66c1.67,0,2.99-0.28,3.97-0.85c0.98-0.57,1.67-1.43,2.08-2.6h7.85c-0.63,3.03-2.16,5.4-4.59,7.12
			C-666.43,441.55-669.52,442.41-673.27,442.41z M-680.65,424.49h13.81c-0.25-1.8-0.95-3.14-2.08-4.04
			c-1.13-0.9-2.66-1.35-4.59-1.35c-1.92,0-3.49,0.46-4.71,1.37C-679.43,421.38-680.24,422.72-680.65,424.49z"/>
		<path d="M-648.5,441.84c-2.02,0-3.59-0.51-4.7-1.54c-1.12-1.02-1.68-2.59-1.68-4.7v-15.98h-4.87v-6.15h4.96v-8.51h7.66v8.51h6.57
			v6.15h-6.48v16.08h7.14v6.15H-648.5z"/>
		<path d="M-629.3,442.36c-3.34,0-5.96-0.81-7.85-2.44c-1.89-1.62-2.84-3.76-2.84-6.41c0-2.81,0.98-4.97,2.93-6.48
			c1.95-1.51,4.76-2.27,8.42-2.27h8.13v-1.09c0-3.06-1.83-4.59-5.49-4.59c-3.18,0-5.11,1.1-5.77,3.31h-7.8
			c0.63-3.12,2.1-5.49,4.4-7.09c2.3-1.61,5.36-2.41,9.17-2.41c4.22,0,7.45,0.95,9.67,2.84c2.22,1.89,3.33,4.65,3.33,8.27v10.07h3.69
			v7.75h-7.94v-4.63h-1.99c-0.98,1.64-2.29,2.91-3.92,3.81C-624.79,441.91-626.84,442.36-629.3,442.36z M-628.12,436.4
			c1.48,0,2.79-0.27,3.92-0.8c1.14-0.54,2.03-1.25,2.7-2.15c0.66-0.9,0.99-1.92,0.99-3.05v-0.43h-7.75c-2.84,0-4.26,1.06-4.26,3.17
			c0,1.04,0.39,1.84,1.18,2.41C-630.54,436.12-629.47,436.4-628.12,436.4z"/>
		<path d="M-607.22,441.84v-39.72h7.85v39.72H-607.22z"/>
		<path d="M-588.07,441.84l16.22-38.3h8.23l16.03,38.3h-8.23l-3.92-9.36h-16.36l-4.02,9.36H-588.07z M-573.6,425.76h11.68
			l-5.72-13.81h-0.24L-573.6,425.76z"/>
		<path d="M-544.57,441.84v-20.62h-3.88v-7.75h7.94v5.58h1.99c0.76-1.99,1.95-3.47,3.59-4.44c1.64-0.98,3.48-1.47,5.53-1.47h2.41
			v6.81h-2.74c-2.46,0-4.26,0.69-5.41,2.08c-1.15,1.39-1.73,3.22-1.73,5.49v14.33H-544.57z"/>
		<path d="M-513.69,442.41c-2.96,0-5.56-0.61-7.78-1.82c-2.22-1.21-3.96-2.92-5.2-5.13c-1.25-2.21-1.87-4.81-1.87-7.8
			c0-2.99,0.61-5.6,1.84-7.8c1.23-2.21,2.96-3.92,5.2-5.13c2.24-1.21,4.84-1.82,7.8-1.82c3.75,0,6.84,0.95,9.27,2.84
			c2.43,1.89,3.96,4.49,4.59,7.8h-7.9c-0.41-1.23-1.12-2.18-2.13-2.84c-1.01-0.66-2.29-0.99-3.83-0.99c-2.11,0-3.81,0.69-5.08,2.08
			c-1.28,1.39-1.92,3.34-1.92,5.86c0,2.52,0.65,4.48,1.94,5.86c1.29,1.39,2.98,2.08,5.06,2.08c3.34,0,5.37-1.42,6.1-4.26h7.9
			c-0.57,3.47-2.07,6.18-4.49,8.13C-506.61,441.43-509.78,442.41-513.69,442.41z"/>
		<path d="M-499.12,441.84v-39.72h7.85v15.42h0.19c0.91-1.51,2.14-2.66,3.69-3.43c1.54-0.77,3.37-1.16,5.49-1.16
			c3.56,0,6.39,1.08,8.49,3.24c2.1,2.16,3.14,5.05,3.14,8.68v16.98h-7.85v-15.51c0-2.08-0.56-3.66-1.68-4.75
			c-1.12-1.09-2.75-1.63-4.89-1.63c-2.14,0-3.78,0.54-4.89,1.63c-1.12,1.09-1.68,2.67-1.68,4.75v15.51H-499.12z"/>
		<path d="M-463.05,410.68c-1.2,0-2.22-0.42-3.05-1.25c-0.84-0.83-1.25-1.85-1.25-3.05c0-1.2,0.42-2.21,1.25-3.05
			c0.83-0.83,1.85-1.25,3.05-1.25c1.2,0,2.21,0.42,3.05,1.25c0.83,0.84,1.25,1.85,1.25,3.05c0,1.2-0.42,2.21-1.25,3.05
			C-460.83,410.26-461.85,410.68-463.05,410.68z M-466.97,441.84v-28.37h7.85v28.37H-466.97z"/>
		<path d="M-446.59,441.84c-2.02,0-3.59-0.51-4.7-1.54c-1.12-1.02-1.68-2.59-1.68-4.7v-15.98h-4.87v-6.15h4.96v-8.51h7.66v8.51h6.57
			v6.15h-6.48v16.08h7.14v6.15H-446.59z"/>
		<path d="M-423.04,442.41c-3.06,0-5.72-0.61-7.99-1.82c-2.27-1.21-4.02-2.93-5.25-5.15s-1.84-4.85-1.84-7.87s0.6-5.63,1.8-7.83
			c1.2-2.19,2.91-3.88,5.13-5.06c2.22-1.18,4.85-1.77,7.87-1.77c2.96,0,5.51,0.57,7.64,1.7c2.13,1.14,3.76,2.76,4.89,4.87
			c1.13,2.11,1.7,4.63,1.7,7.57v2.65h-21.51c0.31,2.11,1.12,3.72,2.41,4.82c1.29,1.1,3,1.66,5.11,1.66c1.67,0,2.99-0.28,3.97-0.85
			c0.98-0.57,1.67-1.43,2.08-2.6h7.85c-0.63,3.03-2.16,5.4-4.59,7.12C-416.2,441.55-419.29,442.41-423.04,442.41z M-430.42,424.49
			h13.81c-0.25-1.8-0.95-3.14-2.08-4.04s-2.67-1.35-4.59-1.35c-1.92,0-3.49,0.46-4.71,1.37
			C-429.2,421.38-430.01,422.72-430.42,424.49z"/>
		<path d="M-393.96,442.41c-2.96,0-5.56-0.61-7.78-1.82c-2.22-1.21-3.96-2.92-5.2-5.13c-1.25-2.21-1.87-4.81-1.87-7.8
			c0-2.99,0.61-5.6,1.84-7.8c1.23-2.21,2.96-3.92,5.2-5.13c2.24-1.21,4.84-1.82,7.8-1.82c3.75,0,6.84,0.95,9.27,2.84
			c2.43,1.89,3.96,4.49,4.59,7.8h-7.9c-0.41-1.23-1.12-2.18-2.13-2.84c-1.01-0.66-2.29-0.99-3.83-0.99c-2.11,0-3.81,0.69-5.08,2.08
			c-1.28,1.39-1.92,3.34-1.92,5.86c0,2.52,0.65,4.48,1.94,5.86c1.29,1.39,2.98,2.08,5.06,2.08c3.34,0,5.37-1.42,6.1-4.26h7.9
			c-0.57,3.47-2.06,6.18-4.49,8.13C-386.89,441.43-390.05,442.41-393.96,442.41z"/>
		<path d="M-370.37,441.84c-2.02,0-3.59-0.51-4.71-1.54c-1.12-1.02-1.68-2.59-1.68-4.7v-15.98h-4.87v-6.15h4.96v-8.51h7.66v8.51
			h6.57v6.15h-6.48v16.08h7.14v6.15H-370.37z"/>
		<path d="M-347.91,442.41c-4.16,0-7.45-0.87-9.86-2.62c-2.41-1.75-3.71-4.2-3.9-7.35h7.57c0.25,1.36,0.91,2.36,1.96,3.03
			c1.06,0.66,2.58,0.99,4.56,0.99c3.25,0,4.87-0.9,4.87-2.7c0-0.72-0.25-1.3-0.73-1.73c-0.49-0.43-1.3-0.75-2.44-0.97l-6.34-1.23
			c-5.67-1.1-8.51-3.77-8.51-7.99c0-2.71,1.09-4.88,3.26-6.5c2.18-1.62,5.19-2.44,9.03-2.44c3.81,0,6.84,0.84,9.08,2.51
			c2.24,1.67,3.47,4,3.69,7h-7.57c-0.35-1.32-0.96-2.29-1.84-2.88c-0.88-0.6-2.16-0.9-3.83-0.9c-1.45,0-2.55,0.21-3.31,0.64
			s-1.13,1.06-1.13,1.92c0,0.6,0.24,1.1,0.71,1.51c0.47,0.41,1.2,0.71,2.18,0.9l6.48,1.23c2.96,0.6,5.14,1.56,6.53,2.88
			c1.39,1.32,2.08,3.12,2.08,5.39c0,2.93-1.08,5.22-3.24,6.86C-340.78,441.59-343.87,442.41-347.91,442.41z"/>
	</g>
	<path d="M-87.95,214.81c0-34.21-27.73-61.94-61.93-61.94h-98.13h-11.13h-97.61c-34.22,0-61.96,27.74-61.96,61.97
		c0,21.35,10.8,40.17,27.23,51.32c0,0,0.01,0,0.01,0.01c9.25,6.27,20.29,10.11,32.19,10.58h-33.09h-40.99
		c3.42-9.69,5.29-20.11,5.29-30.97c0-51.31-41.59-92.9-92.9-92.9c-35.33,0-66.06,19.73-81.77,48.77v-48.77h-108.74
		c-34.22,0-61.96,27.74-61.96,61.97c0,21.35,10.8,40.17,27.23,51.32c0,0,0.01,0,0.01,0.01c9.25,6.27,20.29,10.11,32.19,10.58h-33.09
		h-46.84v61.93h108.77c34.21,0,61.94-27.73,61.94-61.94c0-21.33-10.79-40.15-27.21-51.29c-9.44-6.4-20.74-10.26-32.92-10.61h33.86
		v-0.03h40.93c-3.42,9.69-5.29,20.11-5.29,30.97c0,51.31,41.59,92.9,92.9,92.9c35.33,0,66.06-19.73,81.77-48.77v48.77h108.77
		c34.21,0,61.94-27.73,61.94-61.94c0-21.33-10.79-40.15-27.21-51.29c-9.44-6.4-20.74-10.26-32.92-10.61h33.86v-0.03h35.64h11.13
		h36.19h61.94v48.86c-7.72-21.83-28.55-37.47-53.03-37.47c-2.63,0-5.23,0.18-7.76,0.53c-27.39,3.78-48.47,27.28-48.47,55.7
		c0,31.06,25.18,56.24,56.24,56.24c24.47,0,45.3-15.64,53.02-37.46v37.46h0h61.9v-61.93v-60.72
		C-87.97,215.61-87.95,215.21-87.95,214.81z"/>
</g>
<g>
	<g>
		<path class="st0" d="M87.1,395.04c-5.14,0-9.24-1.13-12.29-3.38c-3.06-2.25-4.73-5.38-5.01-9.39h8.23
			c0.28,2.08,1.22,3.65,2.81,4.7c1.59,1.06,3.79,1.58,6.6,1.58c2.49,0,4.37-0.4,5.63-1.21c1.26-0.8,1.89-1.99,1.89-3.57
			c0-1.23-0.4-2.21-1.21-2.93c-0.8-0.72-2.1-1.28-3.9-1.66l-7.9-1.61c-3.56-0.76-6.23-2.01-7.99-3.76
			c-1.77-1.75-2.65-4.03-2.65-6.83c0-3.56,1.35-6.35,4.04-8.37c2.7-2.02,6.36-3.03,10.99-3.03c4.7,0,8.48,1.06,11.35,3.17
			c2.87,2.11,4.48,5.06,4.82,8.84h-8.23c-0.91-3.85-3.7-5.77-8.37-5.77c-2.11,0-3.77,0.38-4.97,1.13c-1.2,0.76-1.8,1.84-1.8,3.26
			c0,2.18,1.56,3.58,4.68,4.21l8.23,1.7c3.72,0.76,6.44,2.03,8.16,3.81c1.72,1.78,2.58,4.18,2.58,7.21c0,3.75-1.36,6.67-4.09,8.75
			C95.98,394,92.11,395.04,87.1,395.04z"/>
		<path class="st0" d="M118.64,395.04c-3.09,0-5.78-0.61-8.06-1.82c-2.29-1.21-4.06-2.92-5.32-5.13c-1.26-2.21-1.89-4.82-1.89-7.85
			c0-2.99,0.62-5.6,1.87-7.8c1.25-2.21,3.02-3.91,5.32-5.11c2.3-1.2,5.01-1.8,8.13-1.8c3.09,0,5.77,0.6,8.04,1.8
			c2.27,1.2,4.02,2.9,5.25,5.11c1.23,2.21,1.84,4.82,1.84,7.85c0,3-0.61,5.6-1.84,7.83c-1.23,2.22-2.99,3.93-5.27,5.13
			C124.41,394.44,121.72,395.04,118.64,395.04z M118.64,388.23c2.36,0,4.18-0.72,5.44-2.15c1.26-1.43,1.89-3.38,1.89-5.84
			c0-2.46-0.63-4.39-1.89-5.79c-1.26-1.4-3.07-2.1-5.44-2.1c-2.4,0-4.23,0.7-5.51,2.1c-1.28,1.4-1.92,3.33-1.92,5.79
			c0,2.46,0.64,4.41,1.92,5.84C114.4,387.51,116.24,388.23,118.64,388.23z"/>
		<path class="st0" d="M148.95,395.04c-2.96,0-5.56-0.61-7.78-1.82c-2.22-1.21-3.96-2.92-5.2-5.13c-1.25-2.21-1.87-4.81-1.87-7.8
			c0-2.99,0.61-5.6,1.84-7.8c1.23-2.21,2.96-3.92,5.2-5.13c2.24-1.21,4.84-1.82,7.8-1.82c3.75,0,6.84,0.95,9.27,2.84
			c2.43,1.89,3.96,4.49,4.59,7.8h-7.9c-0.41-1.23-1.12-2.18-2.13-2.84c-1.01-0.66-2.29-0.99-3.83-0.99c-2.11,0-3.81,0.69-5.08,2.08
			c-1.28,1.39-1.92,3.34-1.92,5.86c0,2.52,0.65,4.48,1.94,5.86c1.29,1.39,2.98,2.08,5.06,2.08c3.34,0,5.37-1.42,6.1-4.26h7.9
			c-0.57,3.47-2.07,6.18-4.49,8.13C156.02,394.06,152.85,395.04,148.95,395.04z"/>
		<path class="st0" d="M167.62,363.31c-1.2,0-2.22-0.42-3.05-1.25c-0.84-0.83-1.25-1.85-1.25-3.05c0-1.2,0.42-2.21,1.25-3.05
			c0.83-0.83,1.85-1.25,3.05-1.25c1.2,0,2.21,0.42,3.05,1.25c0.83,0.84,1.25,1.85,1.25,3.05c0,1.2-0.42,2.21-1.25,3.05
			C169.84,362.89,168.82,363.31,167.62,363.31z M163.7,394.47V366.1h7.85v28.37H163.7z"/>
		<path class="st0" d="M188.62,395.04c-3.06,0-5.72-0.61-7.99-1.82c-2.27-1.21-4.02-2.93-5.25-5.15c-1.23-2.22-1.84-4.85-1.84-7.87
			s0.6-5.63,1.8-7.83c1.2-2.19,2.91-3.88,5.13-5.06c2.22-1.18,4.85-1.77,7.87-1.77c2.96,0,5.51,0.57,7.64,1.7
			c2.13,1.14,3.76,2.76,4.89,4.87c1.13,2.11,1.7,4.63,1.7,7.57v2.65h-21.52c0.31,2.11,1.12,3.72,2.41,4.82
			c1.29,1.1,2.99,1.66,5.11,1.66c1.67,0,2.99-0.28,3.97-0.85c0.98-0.57,1.67-1.43,2.08-2.6h7.85c-0.63,3.03-2.16,5.4-4.59,7.12
			C195.46,394.18,192.37,395.04,188.62,395.04z M181.24,377.12h13.81c-0.25-1.8-0.95-3.14-2.08-4.04c-1.13-0.9-2.66-1.35-4.59-1.35
			c-1.92,0-3.49,0.46-4.71,1.37C182.46,374.01,181.65,375.35,181.24,377.12z"/>
		<path class="st0" d="M213.39,394.47c-2.02,0-3.59-0.51-4.7-1.54c-1.12-1.02-1.68-2.59-1.68-4.7v-15.98h-4.87v-6.15h4.96v-8.51
			h7.66v8.51h6.57v6.15h-6.48v16.08H222v6.15H213.39z"/>
		<path class="st0" d="M223.42,405.82v-6.29h6.24l2.22-5.3l-12.25-28.14h8.32l7.94,19.1h0.19l7.75-19.1h8.04l-12.15,28.37
			l-2.32,5.49c-0.79,1.86-1.7,3.3-2.74,4.33c-1.04,1.02-2.63,1.54-4.78,1.54H223.42z"/>
		<path class="st0" d="M276.76,395.04c-3.09,0-5.78-0.61-8.06-1.82c-2.29-1.21-4.06-2.92-5.32-5.13c-1.26-2.21-1.89-4.82-1.89-7.85
			c0-2.99,0.62-5.6,1.87-7.8c1.25-2.21,3.02-3.91,5.32-5.11c2.3-1.2,5.01-1.8,8.13-1.8c3.09,0,5.77,0.6,8.04,1.8
			c2.27,1.2,4.02,2.9,5.25,5.11c1.23,2.21,1.84,4.82,1.84,7.85c0,3-0.61,5.6-1.84,7.83c-1.23,2.22-2.99,3.93-5.27,5.13
			C282.53,394.44,279.84,395.04,276.76,395.04z M276.76,388.23c2.36,0,4.18-0.72,5.44-2.15c1.26-1.43,1.89-3.38,1.89-5.84
			c0-2.46-0.63-4.39-1.89-5.79c-1.26-1.4-3.07-2.1-5.44-2.1c-2.4,0-4.23,0.7-5.51,2.1c-1.28,1.4-1.92,3.33-1.92,5.79
			c0,2.46,0.64,4.41,1.92,5.84C272.52,387.51,274.36,388.23,276.76,388.23z"/>
		<path class="st0" d="M296.57,394.47v-22.22h-5.06v-6.15h5.15v-5.06c0-2.14,0.57-3.73,1.7-4.75c1.13-1.02,2.73-1.54,4.78-1.54h8.13
			v6.15h-6.95v5.2h6.38v6.15h-6.29v22.22H296.57z"/>
		<path class="st0" d="M87.1,442.41c-5.14,0-9.24-1.13-12.29-3.38c-3.06-2.25-4.73-5.38-5.01-9.39h8.23
			c0.28,2.08,1.22,3.65,2.81,4.7c1.59,1.06,3.79,1.58,6.6,1.58c2.49,0,4.37-0.4,5.63-1.21c1.26-0.8,1.89-1.99,1.89-3.57
			c0-1.23-0.4-2.21-1.21-2.93c-0.8-0.72-2.1-1.28-3.9-1.66l-7.9-1.61c-3.56-0.76-6.23-2.01-7.99-3.76
			c-1.77-1.75-2.65-4.03-2.65-6.83c0-3.56,1.35-6.35,4.04-8.37c2.7-2.02,6.36-3.03,10.99-3.03c4.7,0,8.48,1.06,11.35,3.17
			c2.87,2.11,4.48,5.06,4.82,8.84h-8.23c-0.91-3.85-3.7-5.77-8.37-5.77c-2.11,0-3.77,0.38-4.97,1.13c-1.2,0.76-1.8,1.84-1.8,3.26
			c0,2.18,1.56,3.58,4.68,4.21l8.23,1.7c3.72,0.76,6.44,2.03,8.16,3.81c1.72,1.78,2.58,4.18,2.58,7.21c0,3.75-1.36,6.67-4.09,8.75
			C95.98,441.37,92.11,442.41,87.1,442.41z"/>
		<path class="st0" d="M118.64,442.41c-3.09,0-5.78-0.61-8.06-1.82c-2.29-1.21-4.06-2.92-5.32-5.13c-1.26-2.21-1.89-4.82-1.89-7.85
			c0-2.99,0.62-5.6,1.87-7.8c1.25-2.21,3.02-3.91,5.32-5.11c2.3-1.2,5.01-1.8,8.13-1.8c3.09,0,5.77,0.6,8.04,1.8
			c2.27,1.2,4.02,2.9,5.25,5.11c1.23,2.21,1.84,4.82,1.84,7.85c0,3-0.61,5.6-1.84,7.83c-1.23,2.22-2.99,3.93-5.27,5.13
			C124.41,441.81,121.72,442.41,118.64,442.41z M118.64,435.6c2.36,0,4.18-0.72,5.44-2.15c1.26-1.43,1.89-3.38,1.89-5.84
			c0-2.46-0.63-4.39-1.89-5.79c-1.26-1.4-3.07-2.1-5.44-2.1c-2.4,0-4.23,0.7-5.51,2.1c-1.28,1.4-1.92,3.33-1.92,5.79
			c0,2.46,0.64,4.41,1.92,5.84C114.4,434.88,116.24,435.6,118.64,435.6z"/>
		<path class="st0" d="M148.95,442.41c-2.96,0-5.56-0.61-7.78-1.82c-2.22-1.21-3.96-2.92-5.2-5.13c-1.25-2.21-1.87-4.81-1.87-7.8
			c0-2.99,0.61-5.6,1.84-7.8c1.23-2.21,2.96-3.92,5.2-5.13c2.24-1.21,4.84-1.82,7.8-1.82c3.75,0,6.84,0.95,9.27,2.84
			c2.43,1.89,3.96,4.49,4.59,7.8h-7.9c-0.41-1.23-1.12-2.18-2.13-2.84c-1.01-0.66-2.29-0.99-3.83-0.99c-2.11,0-3.81,0.69-5.08,2.08
			c-1.28,1.39-1.92,3.34-1.92,5.86c0,2.52,0.65,4.48,1.94,5.86c1.29,1.39,2.98,2.08,5.06,2.08c3.34,0,5.37-1.42,6.1-4.26h7.9
			c-0.57,3.47-2.07,6.18-4.49,8.13C156.02,441.43,152.85,442.41,148.95,442.41z"/>
		<path class="st0" d="M167.62,410.68c-1.2,0-2.22-0.42-3.05-1.25c-0.84-0.83-1.25-1.85-1.25-3.05c0-1.2,0.42-2.21,1.25-3.05
			c0.83-0.83,1.85-1.25,3.05-1.25c1.2,0,2.21,0.42,3.05,1.25c0.83,0.84,1.25,1.85,1.25,3.05c0,1.2-0.42,2.21-1.25,3.05
			C169.84,410.26,168.82,410.68,167.62,410.68z M163.7,441.84v-28.37h7.85v28.37H163.7z"/>
		<path class="st0" d="M188.62,442.41c-3.06,0-5.72-0.61-7.99-1.82c-2.27-1.21-4.02-2.93-5.25-5.15c-1.23-2.22-1.84-4.85-1.84-7.87
			s0.6-5.63,1.8-7.83c1.2-2.19,2.91-3.88,5.13-5.06c2.22-1.18,4.85-1.77,7.87-1.77c2.96,0,5.51,0.57,7.64,1.7
			c2.13,1.14,3.76,2.76,4.89,4.87c1.13,2.11,1.7,4.63,1.7,7.57v2.65h-21.52c0.31,2.11,1.12,3.72,2.41,4.82
			c1.29,1.1,2.99,1.66,5.11,1.66c1.67,0,2.99-0.28,3.97-0.85c0.98-0.57,1.67-1.43,2.08-2.6h7.85c-0.63,3.03-2.16,5.4-4.59,7.12
			C195.46,441.55,192.37,442.41,188.62,442.41z M181.24,424.49h13.81c-0.25-1.8-0.95-3.14-2.08-4.04c-1.13-0.9-2.66-1.35-4.59-1.35
			c-1.92,0-3.49,0.46-4.71,1.37C182.46,421.38,181.65,422.72,181.24,424.49z"/>
		<path class="st0" d="M213.39,441.84c-2.02,0-3.59-0.51-4.7-1.54c-1.12-1.02-1.68-2.59-1.68-4.7v-15.98h-4.87v-6.15h4.96v-8.51
			h7.66v8.51h6.57v6.15h-6.48v16.08H222v6.15H213.39z"/>
		<path class="st0" d="M232.59,442.36c-3.34,0-5.96-0.81-7.85-2.44c-1.89-1.62-2.84-3.76-2.84-6.41c0-2.81,0.98-4.97,2.93-6.48
			c1.95-1.51,4.76-2.27,8.42-2.27h8.13v-1.09c0-3.06-1.83-4.59-5.49-4.59c-3.18,0-5.11,1.1-5.77,3.31h-7.8
			c0.63-3.12,2.1-5.49,4.4-7.09c2.3-1.61,5.36-2.41,9.17-2.41c4.22,0,7.45,0.95,9.67,2.84c2.22,1.89,3.33,4.65,3.33,8.27v10.07h3.69
			v7.75h-7.94v-4.63h-1.99c-0.98,1.64-2.29,2.91-3.92,3.81C237.1,441.91,235.05,442.36,232.59,442.36z M233.77,436.4
			c1.48,0,2.79-0.27,3.92-0.8c1.14-0.54,2.03-1.25,2.7-2.15c0.66-0.9,0.99-1.92,0.99-3.05v-0.43h-7.75c-2.84,0-4.26,1.06-4.26,3.17
			c0,1.04,0.39,1.84,1.18,2.41C231.35,436.12,232.42,436.4,233.77,436.4z"/>
		<path class="st0" d="M254.67,441.84v-39.72h7.85v39.72H254.67z"/>
		<path class="st0" d="M273.82,441.84l16.22-38.3h8.23l16.03,38.3h-8.23l-3.92-9.36h-16.36l-4.02,9.36H273.82z M288.29,425.76h11.68
			l-5.72-13.81h-0.24L288.29,425.76z"/>
		<path class="st0" d="M317.32,441.84v-20.62h-3.88v-7.75h7.94v5.58h1.99c0.76-1.99,1.95-3.47,3.59-4.44
			c1.64-0.98,3.48-1.47,5.53-1.47h2.41v6.81h-2.74c-2.46,0-4.26,0.69-5.41,2.08c-1.15,1.39-1.73,3.22-1.73,5.49v14.33H317.32z"/>
		<path class="st0" d="M348.2,442.41c-2.96,0-5.56-0.61-7.78-1.82c-2.22-1.21-3.96-2.92-5.2-5.13c-1.25-2.21-1.87-4.81-1.87-7.8
			c0-2.99,0.61-5.6,1.84-7.8c1.23-2.21,2.96-3.92,5.2-5.13c2.24-1.21,4.84-1.82,7.8-1.82c3.75,0,6.84,0.95,9.27,2.84
			c2.43,1.89,3.96,4.49,4.59,7.8h-7.9c-0.41-1.23-1.12-2.18-2.13-2.84c-1.01-0.66-2.29-0.99-3.83-0.99c-2.11,0-3.81,0.69-5.08,2.08
			c-1.28,1.39-1.92,3.34-1.92,5.86c0,2.52,0.65,4.48,1.94,5.86c1.29,1.39,2.98,2.08,5.06,2.08c3.34,0,5.37-1.42,6.1-4.26h7.9
			c-0.57,3.47-2.07,6.18-4.49,8.13C355.28,441.43,352.11,442.41,348.2,442.41z"/>
		<path class="st0" d="M362.77,441.84v-39.72h7.85v15.42h0.19c0.91-1.51,2.14-2.66,3.69-3.43c1.54-0.77,3.37-1.16,5.49-1.16
			c3.56,0,6.39,1.08,8.49,3.24c2.1,2.16,3.14,5.05,3.14,8.68v16.98h-7.85v-15.51c0-2.08-0.56-3.66-1.68-4.75
			c-1.12-1.09-2.75-1.63-4.89-1.63c-2.14,0-3.78,0.54-4.89,1.63c-1.12,1.09-1.68,2.67-1.68,4.75v15.51H362.77z"/>
		<path class="st0" d="M398.84,410.68c-1.2,0-2.22-0.42-3.05-1.25c-0.84-0.83-1.25-1.85-1.25-3.05c0-1.2,0.42-2.21,1.25-3.05
			c0.83-0.83,1.85-1.25,3.05-1.25c1.2,0,2.21,0.42,3.05,1.25c0.83,0.84,1.25,1.85,1.25,3.05c0,1.2-0.42,2.21-1.25,3.05
			C401.06,410.26,400.04,410.68,398.84,410.68z M394.92,441.84v-28.37h7.85v28.37H394.92z"/>
		<path class="st0" d="M415.3,441.84c-2.02,0-3.59-0.51-4.7-1.54c-1.12-1.02-1.68-2.59-1.68-4.7v-15.98h-4.87v-6.15h4.96v-8.51h7.66
			v8.51h6.57v6.15h-6.48v16.08h7.14v6.15H415.3z"/>
		<path class="st0" d="M438.85,442.41c-3.06,0-5.72-0.61-7.99-1.82c-2.27-1.21-4.02-2.93-5.25-5.15s-1.84-4.85-1.84-7.87
			s0.6-5.63,1.8-7.83c1.2-2.19,2.91-3.88,5.13-5.06c2.22-1.18,4.85-1.77,7.87-1.77c2.96,0,5.51,0.57,7.64,1.7
			c2.13,1.14,3.76,2.76,4.89,4.87c1.13,2.11,1.7,4.63,1.7,7.57v2.65h-21.51c0.31,2.11,1.12,3.72,2.41,4.82
			c1.29,1.1,3,1.66,5.11,1.66c1.67,0,2.99-0.28,3.97-0.85c0.98-0.57,1.67-1.43,2.08-2.6h7.85c-0.63,3.03-2.16,5.4-4.59,7.12
			C445.69,441.55,442.6,442.41,438.85,442.41z M431.47,424.49h13.81c-0.25-1.8-0.95-3.14-2.08-4.04s-2.67-1.35-4.59-1.35
			c-1.92,0-3.49,0.46-4.71,1.37C432.69,421.38,431.88,422.72,431.47,424.49z"/>
		<path class="st0" d="M467.93,442.41c-2.96,0-5.56-0.61-7.78-1.82c-2.22-1.21-3.96-2.92-5.2-5.13c-1.25-2.21-1.87-4.81-1.87-7.8
			c0-2.99,0.61-5.6,1.84-7.8c1.23-2.21,2.96-3.92,5.2-5.13c2.24-1.21,4.84-1.82,7.8-1.82c3.75,0,6.84,0.95,9.27,2.84
			c2.43,1.89,3.96,4.49,4.59,7.8h-7.9c-0.41-1.23-1.12-2.18-2.13-2.84c-1.01-0.66-2.29-0.99-3.83-0.99c-2.11,0-3.81,0.69-5.08,2.08
			c-1.28,1.39-1.92,3.34-1.92,5.86c0,2.52,0.65,4.48,1.94,5.86c1.29,1.39,2.98,2.08,5.06,2.08c3.34,0,5.37-1.42,6.1-4.26h7.9
			c-0.57,3.47-2.06,6.18-4.49,8.13C475,441.43,471.84,442.41,467.93,442.41z"/>
		<path class="st0" d="M491.52,441.84c-2.02,0-3.59-0.51-4.71-1.54c-1.12-1.02-1.68-2.59-1.68-4.7v-15.98h-4.87v-6.15h4.96v-8.51
			h7.66v8.51h6.57v6.15h-6.48v16.08h7.14v6.15H491.52z"/>
		<path class="st0" d="M513.98,442.41c-4.16,0-7.45-0.87-9.86-2.62c-2.41-1.75-3.71-4.2-3.9-7.35h7.57
			c0.25,1.36,0.91,2.36,1.96,3.03c1.06,0.66,2.58,0.99,4.56,0.99c3.25,0,4.87-0.9,4.87-2.7c0-0.72-0.25-1.3-0.73-1.73
			c-0.49-0.43-1.3-0.75-2.44-0.97l-6.34-1.23c-5.67-1.1-8.51-3.77-8.51-7.99c0-2.71,1.09-4.88,3.26-6.5
			c2.18-1.62,5.19-2.44,9.03-2.44c3.81,0,6.84,0.84,9.08,2.51c2.24,1.67,3.47,4,3.69,7h-7.57c-0.35-1.32-0.96-2.29-1.84-2.88
			c-0.88-0.6-2.16-0.9-3.83-0.9c-1.45,0-2.55,0.21-3.31,0.64s-1.13,1.06-1.13,1.92c0,0.6,0.24,1.1,0.71,1.51
			c0.47,0.41,1.2,0.71,2.18,0.9l6.48,1.23c2.96,0.6,5.14,1.56,6.53,2.88c1.39,1.32,2.08,3.12,2.08,5.39c0,2.93-1.08,5.22-3.24,6.86
			C521.11,441.59,518.02,442.41,513.98,442.41z"/>
	</g>
	<path class="st0" d="M773.94,214.81c0-34.21-27.73-61.94-61.93-61.94h-98.13h-11.13h-97.61c-34.22,0-61.96,27.74-61.96,61.97
		c0,21.35,10.8,40.17,27.23,51.32c0,0,0.01,0,0.01,0.01c9.25,6.27,20.29,10.11,32.19,10.58h-33.09h-41
		c3.42-9.69,5.29-20.11,5.29-30.97c0-51.31-41.59-92.9-92.9-92.9c-35.33,0-66.06,19.73-81.77,48.77v-48.77H150.41
		c-34.22,0-61.96,27.74-61.96,61.97c0,21.35,10.8,40.17,27.23,51.32c0,0,0.01,0,0.01,0.01c9.25,6.27,20.29,10.11,32.19,10.58h-33.09
		H67.95v61.93h108.77c34.21,0,61.94-27.73,61.94-61.94c0-21.33-10.79-40.15-27.21-51.29c-9.44-6.4-20.74-10.26-32.92-10.61h33.86
		v-0.03h40.93c-3.42,9.69-5.29,20.11-5.29,30.97c0,51.31,41.59,92.9,92.9,92.9c35.33,0,66.06-19.73,81.77-48.77v48.77h108.77
		c34.21,0,61.94-27.73,61.94-61.94c0-21.33-10.79-40.15-27.21-51.29c-9.44-6.4-20.74-10.26-32.92-10.61h33.86v-0.03h35.64h11.13
		h36.19h61.94v48.86c-7.72-21.83-28.55-37.47-53.03-37.47c-2.63,0-5.23,0.18-7.76,0.53c-27.39,3.78-48.47,27.28-48.47,55.7
		c0,31.06,25.18,56.24,56.24,56.24c24.47,0,45.3-15.64,53.02-37.46v37.46h0h61.9v-61.93v-60.72
		C773.92,215.61,773.94,215.21,773.94,214.81z"/>
</g>
</svg>
